<mxfile host="65bd71144e">
    <diagram name="AI Tutor Agent Workflow" id="0">
        <mxGraphModel dx="499" dy="578" grid="0" gridSize="10" guides="1" tooltips="1" connect="1" arrows="1" fold="1" page="1" pageScale="1" pageWidth="1100" pageHeight="850" background="#FFFFFF" math="0" shadow="0" adaptiveColors="auto">
            <root>
                <mxCell id="0"/>
                <mxCell id="1" parent="0"/>
                <mxCell id="n_userinput" value="User Input" style="rounded=1;whiteSpace=wrap;html=1;strokeWidth=2;fillColor=#F3E8FF;strokeColor=#8B5CF6;fontColor=#000000;" parent="1" vertex="1">
                    <mxGeometry x="331" y="66" width="160" height="40" as="geometry"/>
                </mxCell>
                <mxCell id="n_classification_label" value="Task Classification" style="text;html=1;strokeColor=none;fillColor=none;align=center;verticalAlign=middle;whiteSpace=wrap;rounded=0;fontColor=#000000;" parent="1" vertex="1">
                    <mxGeometry x="390" y="223" width="160" height="20" as="geometry"/>
                </mxCell>
                <mxCell id="n_agent" value="Orchestral Agent" style="ellipse;whiteSpace=wrap;html=1;strokeWidth=2;fillColor=#F3E8FF;strokeColor=#8B5CF6;fontColor=#000000;" parent="1" vertex="1">
                    <mxGeometry x="376" y="148" width="70" height="70" as="geometry"/>
                </mxCell>
                <mxCell id="g_models" value="" style="group;rounded=1;whiteSpace=wrap;html=1;strokeWidth=2;fillColor=none;strokeColor=#8B5CF6;dashed=1;fontColor=#000000;" parent="1" vertex="1">
                    <mxGeometry x="299" y="261" width="224" height="44" as="geometry"/>
                </mxCell>
                <mxCell id="n_finetuned" value="" style="ellipse;whiteSpace=wrap;html=1;strokeWidth=1;fillColor=#8B5CF6;fontColor=#000000;" parent="g_models" vertex="1">
                    <mxGeometry x="14.001818181818182" y="20.53333333333333" width="8.145454545454546" height="11.733333333333333" as="geometry"/>
                </mxCell>
                <mxCell id="n_model2" value="" style="ellipse;whiteSpace=wrap;html=1;strokeWidth=1;fillColor=#8B5CF6;fontColor=#000000;" parent="g_models" vertex="1">
                    <mxGeometry x="86.99540419580421" y="20.53333333333333" width="8.145454545454546" height="11.733333333333333" as="geometry"/>
                </mxCell>
                <mxCell id="n_model3" value="" style="ellipse;whiteSpace=wrap;html=1;strokeWidth=1;fillColor=#8B5CF6;fontColor=#000000;" parent="g_models" vertex="1">
                    <mxGeometry x="164.0021202797203" y="20.53333333333333" width="8.145454545454546" height="11.733333333333333" as="geometry"/>
                </mxCell>
                <mxCell id="22" value="&lt;div style=&quot;text-align: center;&quot;&gt;&lt;i style=&quot;scrollbar-color: rgb(226, 226, 226) rgb(251, 251, 251);&quot;&gt;&lt;font style=&quot;scrollbar-color: rgb(226, 226, 226) rgb(251, 251, 251);&quot;&gt;Agent&lt;span style=&quot;font-size: 8.33333px;&quot;&gt;&lt;sub&gt;A&lt;/sub&gt;&lt;/span&gt;&lt;/font&gt;&lt;/i&gt;&lt;/div&gt;" style="text;whiteSpace=wrap;html=1;fontColor=#000000;" parent="g_models" vertex="1">
                    <mxGeometry x="25.001841491841496" y="11.736666666666666" width="50.909090909090914" height="29.333333333333332" as="geometry"/>
                </mxCell>
                <mxCell id="23" value="&lt;i style=&quot;scrollbar-color: rgb(226, 226, 226) rgb(251, 251, 251); text-align: center;&quot;&gt;&lt;font style=&quot;scrollbar-color: rgb(226, 226, 226) rgb(251, 251, 251);&quot;&gt;Agent&lt;span style=&quot;font-size: 8.33333px;&quot;&gt;&lt;sub&gt;B&lt;/sub&gt;&lt;/span&gt;&lt;/font&gt;&lt;/i&gt;&lt;div&gt;&lt;i style=&quot;scrollbar-color: rgb(226, 226, 226) rgb(251, 251, 251); text-align: center;&quot;&gt;&lt;font style=&quot;scrollbar-color: rgb(226, 226, 226) rgb(251, 251, 251);&quot;&gt;&lt;span style=&quot;font-size: 8.33333px;&quot;&gt;&lt;sub&gt;&lt;br&gt;&lt;/sub&gt;&lt;/span&gt;&lt;/font&gt;&lt;/i&gt;&lt;/div&gt;" style="text;whiteSpace=wrap;html=1;fontColor=#000000;" parent="g_models" vertex="1">
                    <mxGeometry x="103.00100917431195" y="11.74" width="38.18275229357798" height="29.07" as="geometry"/>
                </mxCell>
                <mxCell id="59" value="&lt;span style=&quot;scrollbar-color: rgb(226, 226, 226) rgb(251, 251, 251); text-align: center;&quot;&gt;&lt;i style=&quot;scrollbar-color: rgb(226, 226, 226) rgb(251, 251, 251);&quot;&gt;&lt;font style=&quot;&quot;&gt;Agent&lt;span style=&quot;font-size: 10px;&quot;&gt;&lt;sub style=&quot;&quot;&gt;n&lt;/sub&gt;&lt;/span&gt;&lt;/font&gt;&lt;/i&gt;&lt;/span&gt;" style="text;whiteSpace=wrap;html=1;fontColor=#000000;" parent="g_models" vertex="1">
                    <mxGeometry x="174.77155804195806" y="11.736666666666666" width="41.36363636363636" height="26.4" as="geometry"/>
                </mxCell>
                <mxCell id="n_thought" value="Thought" style="rhombus;whiteSpace=wrap;html=1;strokeWidth=2;fillColor=#F3E8FF;strokeColor=#8B5CF6;fontColor=#000000;" parent="1" vertex="1">
                    <mxGeometry x="351" y="351" width="120" height="80" as="geometry"/>
                </mxCell>
                <mxCell id="n_action_label" value="Action" style="text;html=1;strokeColor=none;fillColor=none;align=center;verticalAlign=middle;whiteSpace=wrap;rounded=0;fontColor=#000000;fontStyle=2;" parent="1" vertex="1">
                    <mxGeometry x="268" y="405" width="50" height="20" as="geometry"/>
                </mxCell>
                <mxCell id="n_tool" value="Tools" style="ellipse;whiteSpace=wrap;html=1;strokeWidth=2;fillColor=#F3E8FF;strokeColor=#8B5CF6;fontColor=#000000;" parent="1" vertex="1">
                    <mxGeometry x="183" y="437" width="100" height="50" as="geometry"/>
                </mxCell>
                <mxCell id="n_possible_answer" value="Possible&#xa;Answer" style="rounded=1;whiteSpace=wrap;html=1;strokeWidth=2;fillColor=#F3E8FF;strokeColor=#8B5CF6;fontColor=#000000;" parent="1" vertex="1">
                    <mxGeometry x="486" y="413" width="140" height="60" as="geometry"/>
                </mxCell>
                <mxCell id="n_dean" value="DEANLLM" style="ellipse;whiteSpace=wrap;html=1;strokeWidth=2;fillColor=#fff2cc;strokeColor=#d6b656;fontColor=#000000;" parent="1" vertex="1">
                    <mxGeometry x="518" y="530" width="80" height="60" as="geometry"/>
                </mxCell>
                <mxCell id="n_bad_answer" value="Bad Answer" style="ellipse;whiteSpace=wrap;html=1;strokeWidth=2;fillColor=#FFE4E1;strokeColor=#EF4444;gradientColor=none;shadow=0;fontColor=#000000;" parent="1" vertex="1">
                    <mxGeometry x="585" y="626" width="110" height="50" as="geometry"/>
                </mxCell>
                <mxCell id="n_good_answer" value="Good Answer" style="ellipse;whiteSpace=wrap;html=1;strokeWidth=2;fillColor=#E6FFED;strokeColor=#22C55E;fontColor=#000000;" parent="1" vertex="1">
                    <mxGeometry x="439" y="626" width="120" height="50" as="geometry"/>
                </mxCell>
                <mxCell id="n_output" value="&lt;span style=&quot;font-weight: normal;&quot;&gt;Output&lt;/span&gt;" style="rounded=1;whiteSpace=wrap;html=1;strokeWidth=2;fillColor=#F3E8FF;strokeColor=#8B5CF6;fontStyle=1;fontColor=#000000;" parent="1" vertex="1">
                    <mxGeometry x="433" y="719" width="120" height="40" as="geometry"/>
                </mxCell>
                <mxCell id="e1" style="endArrow=classic;strokeWidth=2;strokeColor=#8B5CF6;fontColor=#000000;" parent="1" source="n_userinput" target="n_agent" edge="1">
                    <mxGeometry relative="1" as="geometry"/>
                </mxCell>
                <mxCell id="e2" style="endArrow=classic;strokeWidth=2;strokeColor=#8B5CF6;entryX=0.5;entryY=0;entryDx=0;entryDy=0;fontColor=#000000;" parent="1" source="n_agent" target="g_models" edge="1">
                    <mxGeometry relative="1" as="geometry">
                        <mxPoint x="401" y="248" as="targetPoint"/>
                    </mxGeometry>
                </mxCell>
                <mxCell id="e3" style="endArrow=classic;strokeWidth=2;strokeColor=#8B5CF6;fontColor=#000000;" parent="1" target="n_thought" edge="1">
                    <mxGeometry relative="1" as="geometry">
                        <mxPoint x="411" y="308" as="sourcePoint"/>
                        <mxPoint x="150" y="320" as="targetPoint"/>
                    </mxGeometry>
                </mxCell>
                <mxCell id="e4" style="endArrow=classic;strokeWidth=1.5;strokeColor=#8B5CF6;exitX=0.177;exitY=0.719;exitDx=0;exitDy=0;exitPerimeter=0;fontColor=#000000;" parent="1" source="n_thought" target="n_tool" edge="1">
                    <mxGeometry relative="1" as="geometry"/>
                </mxCell>
                <mxCell id="e5" style="endArrow=classic;strokeWidth=1.5;strokeColor=#8B5CF6;fontColor=#000000;" parent="1" source="n_tool" edge="1">
                    <mxGeometry relative="1" as="geometry">
                        <mxPoint x="316.2011834319528" y="530.6982248520708" as="targetPoint"/>
                    </mxGeometry>
                </mxCell>
                <mxCell id="e8" style="endArrow=classic;strokeWidth=1.5;strokeColor=#8B5CF6;fontColor=#000000;" parent="1" source="n_possible_answer" target="n_dean" edge="1">
                    <mxGeometry relative="1" as="geometry"/>
                </mxCell>
                <mxCell id="e10" style="endArrow=classic;strokeWidth=1.5;strokeColor=#EF4444;exitX=1;exitY=1;exitDx=0;exitDy=0;fontColor=#000000;" parent="1" source="n_dean" target="n_bad_answer" edge="1">
                    <mxGeometry relative="1" as="geometry">
                        <mxPoint x="465" y="620" as="sourcePoint"/>
                    </mxGeometry>
                </mxCell>
                <mxCell id="e_feedback" style="endArrow=classic;strokeWidth=1.5;strokeColor=#8B5CF6;dashed=1;curved=1;exitX=0;exitY=0.5;exitDx=0;exitDy=0;fontColor=#000000;" parent="1" source="n_output" target="n_thought" edge="1">
                    <mxGeometry relative="1" as="geometry">
                        <Array as="points">
                            <mxPoint x="176" y="684"/>
                            <mxPoint x="134" y="361"/>
                        </Array>
                    </mxGeometry>
                </mxCell>
                <mxCell id="8" value="MEGRAG" style="text;html=1;strokeColor=none;fillColor=none;align=center;verticalAlign=middle;whiteSpace=wrap;rounded=0;fontColor=#000000;fontStyle=2;" parent="1" vertex="1">
                    <mxGeometry x="292" y="483" width="34" height="20" as="geometry"/>
                </mxCell>
                <mxCell id="9" style="endArrow=classic;strokeWidth=1.5;strokeColor=#8B5CF6;entryX=0.5;entryY=1;entryDx=0;entryDy=0;exitX=0.85;exitY=0.05;exitDx=0;exitDy=0;fontColor=#000000;exitPerimeter=0;" parent="1" source="77" target="n_thought" edge="1">
                    <mxGeometry relative="1" as="geometry">
                        <mxPoint x="363.0400000000001" y="522" as="sourcePoint"/>
                        <mxPoint x="149" y="595" as="targetPoint"/>
                    </mxGeometry>
                </mxCell>
                <mxCell id="10" value="&lt;span style=&quot;font-family: Helvetica; font-size: 12px; font-variant-ligatures: normal; font-variant-caps: normal; letter-spacing: normal; orphans: 2; text-align: center; text-indent: 0px; text-transform: none; widows: 2; word-spacing: 0px; -webkit-text-stroke-width: 0px; white-space: normal; background-color: rgb(251, 251, 251); text-decoration-thickness: initial; text-decoration-style: initial; text-decoration-color: initial; float: none; display: inline !important;&quot;&gt;Observation&lt;/span&gt;&lt;div&gt;&lt;span style=&quot;font-family: Helvetica; font-size: 12px; font-variant-ligatures: normal; font-variant-caps: normal; font-weight: 400; letter-spacing: normal; orphans: 2; text-align: center; text-indent: 0px; text-transform: none; widows: 2; word-spacing: 0px; -webkit-text-stroke-width: 0px; white-space: normal; background-color: rgb(251, 251, 251); text-decoration-thickness: initial; text-decoration-style: initial; text-decoration-color: initial; float: none; display: inline !important;&quot;&gt;&lt;br&gt;&lt;/span&gt;&lt;/div&gt;" style="text;whiteSpace=wrap;html=1;fontColor=#000000;fontStyle=2" parent="1" vertex="1">
                    <mxGeometry x="385" y="475" width="70" height="40" as="geometry"/>
                </mxCell>
                <mxCell id="11" style="endArrow=classic;strokeWidth=2;strokeColor=#8B5CF6;exitX=1;exitY=1;exitDx=0;exitDy=0;entryX=0;entryY=0.5;entryDx=0;entryDy=0;fontColor=#000000;" parent="1" source="n_thought" target="n_possible_answer" edge="1">
                    <mxGeometry relative="1" as="geometry">
                        <mxPoint x="355" y="270" as="sourcePoint"/>
                        <mxPoint x="203" y="352" as="targetPoint"/>
                    </mxGeometry>
                </mxCell>
                <mxCell id="15" style="endArrow=classic;strokeWidth=2;strokeColor=#22C55E;entryX=0.5;entryY=0;entryDx=0;entryDy=0;exitX=0;exitY=1;exitDx=0;exitDy=0;fontColor=#000000;" parent="1" source="n_dean" target="n_good_answer" edge="1">
                    <mxGeometry relative="1" as="geometry">
                        <mxPoint x="529.5" y="513" as="sourcePoint"/>
                        <mxPoint x="560" y="640" as="targetPoint"/>
                    </mxGeometry>
                </mxCell>
                <mxCell id="16" style="endArrow=classic;strokeWidth=2;strokeColor=#8B5CF6;exitX=0.5;exitY=1;exitDx=0;exitDy=0;entryX=0.5;entryY=0;entryDx=0;entryDy=0;fontColor=#000000;" parent="1" source="n_good_answer" target="n_output" edge="1">
                    <mxGeometry relative="1" as="geometry">
                        <mxPoint x="420" y="740" as="sourcePoint"/>
                        <mxPoint x="650" y="750" as="targetPoint"/>
                    </mxGeometry>
                </mxCell>
                <mxCell id="46" value="&lt;span style=&quot;forced-color-adjust: none; scrollbar-color: rgb(226, 226, 226) rgb(251, 251, 251); font-family: Helvetica; font-size: 12px; font-style: italic; font-variant-ligatures: normal; font-variant-caps: normal; letter-spacing: normal; orphans: 2; text-align: center; text-indent: 0px; text-transform: none; widows: 2; word-spacing: 0px; -webkit-text-stroke-width: 0px; white-space: normal; text-decoration-thickness: initial; text-decoration-style: initial; text-decoration-color: initial;&quot;&gt;User Feeback&lt;/span&gt;" style="text;whiteSpace=wrap;html=1;fontColor=#000000;" parent="1" vertex="1">
                    <mxGeometry x="94" y="538" width="65" height="36" as="geometry"/>
                </mxCell>
                <mxCell id="49" style="endArrow=classic;strokeWidth=1.5;strokeColor=#8B5CF6;dashed=1;curved=1;exitX=1;exitY=0.5;exitDx=0;exitDy=0;entryX=1;entryY=0.5;entryDx=0;entryDy=0;fontColor=#000000;" parent="1" source="n_bad_answer" target="n_thought" edge="1">
                    <mxGeometry relative="1" as="geometry">
                        <Array as="points">
                            <mxPoint x="735" y="605"/>
                            <mxPoint x="659" y="351"/>
                        </Array>
                        <mxPoint x="843" y="687" as="sourcePoint"/>
                        <mxPoint x="812" y="310" as="targetPoint"/>
                    </mxGeometry>
                </mxCell>
                <mxCell id="55" value="&lt;span style=&quot;forced-color-adjust: none; scrollbar-color: rgb(226, 226, 226) rgb(251, 251, 251); font-family: Helvetica; font-size: 12px; font-variant-ligatures: normal; font-variant-caps: normal; letter-spacing: normal; orphans: 2; text-indent: 0px; text-transform: none; widows: 2; word-spacing: 0px; -webkit-text-stroke-width: 0px; white-space: normal; text-decoration-thickness: initial; text-decoration-style: initial; text-decoration-color: initial; font-style: italic; text-align: center; background-color: light-dark(#ffffff, var(--ge-dark-color, #121212));&quot;&gt;LLM&amp;nbsp;&lt;/span&gt;&lt;div&gt;&lt;span style=&quot;forced-color-adjust: none; scrollbar-color: rgb(226, 226, 226) rgb(251, 251, 251); font-family: Helvetica; font-size: 12px; font-variant-ligatures: normal; font-variant-caps: normal; letter-spacing: normal; orphans: 2; text-indent: 0px; text-transform: none; widows: 2; word-spacing: 0px; -webkit-text-stroke-width: 0px; white-space: normal; text-decoration-thickness: initial; text-decoration-style: initial; text-decoration-color: initial; font-style: italic; text-align: center; background-color: light-dark(#ffffff, var(--ge-dark-color, #121212));&quot;&gt;Feeback&lt;/span&gt;&lt;/div&gt;" style="text;whiteSpace=wrap;html=1;fontColor=#000000;" parent="1" vertex="1">
                    <mxGeometry x="705" y="475" width="106" height="36" as="geometry"/>
                </mxCell>
                <mxCell id="63" value="&lt;span style=&quot;forced-color-adjust: none; scrollbar-color: rgb(226, 226, 226) rgb(251, 251, 251); font-family: Helvetica; font-size: 12px; font-variant-ligatures: normal; font-variant-caps: normal; letter-spacing: normal; orphans: 2; text-indent: 0px; text-transform: none; widows: 2; word-spacing: 0px; -webkit-text-stroke-width: 0px; white-space: normal; text-decoration-thickness: initial; text-decoration-style: initial; text-decoration-color: initial; font-style: italic; text-align: center; background-color: rgb(251, 251, 251); float: none; display: inline !important;&quot;&gt;&lt;span style=&quot;forced-color-adjust: none; scrollbar-color: rgb(226, 226, 226) rgb(251, 251, 251);&quot;&gt;LLM Evaluation&lt;/span&gt;&lt;/span&gt;" style="text;whiteSpace=wrap;html=1;fontColor=#000000;" parent="1" vertex="1">
                    <mxGeometry x="566" y="498" width="98" height="36" as="geometry"/>
                </mxCell>
                <mxCell id="73" style="endArrow=classic;strokeWidth=2;strokeColor=#8B5CF6;entryX=1;entryY=0;entryDx=0;entryDy=0;fontColor=#000000;exitX=0.5;exitY=1;exitDx=0;exitDy=0;" parent="1" source="74" target="n_thought" edge="1">
                    <mxGeometry relative="1" as="geometry">
                        <mxPoint x="618" y="325" as="sourcePoint"/>
                        <mxPoint x="421" y="271" as="targetPoint"/>
                        <Array as="points"/>
                    </mxGeometry>
                </mxCell>
                <mxCell id="74" value="Memeory&amp;nbsp;&lt;div&gt;Agent&lt;/div&gt;" style="rounded=1;whiteSpace=wrap;html=1;strokeWidth=2;fillColor=#F3E8FF;strokeColor=#8B5CF6;fontColor=#000000;" parent="1" vertex="1">
                    <mxGeometry x="598" y="266" width="99" height="47" as="geometry"/>
                </mxCell>
                <mxCell id="77" value="&lt;span style=&quot;color: rgb(0, 0, 0);&quot;&gt;Neo4j Graph&amp;nbsp;&lt;/span&gt;&lt;span style=&quot;background-color: transparent;&quot;&gt;DB&lt;/span&gt;" style="shape=datastore;whiteSpace=wrap;html=1;fillColor=light-dark(#f3e8ff, #ededed);strokeColor=light-dark(#8b5cf6, #ededed);strokeWidth=2;" parent="1" vertex="1">
                    <mxGeometry x="314" y="521" width="61" height="73" as="geometry"/>
                </mxCell>
                <mxCell id="78" value="&lt;span style=&quot;color: rgb(0, 0, 0);&quot;&gt;Working Memory&lt;/span&gt;" style="rounded=1;whiteSpace=wrap;html=1;strokeWidth=2;fillColor=#F3E8FF;strokeColor=#8B5CF6;fontColor=#000000;rotation=-90;horizontal=1;textDirection=vertical-rl;" parent="1" vertex="1">
                    <mxGeometry x="546" y="135" width="86" height="55.5" as="geometry"/>
                </mxCell>
                <mxCell id="82" value="&lt;span style=&quot;color: rgb(0, 0, 0);&quot;&gt;Long-&lt;/span&gt;&lt;div&gt;&lt;span style=&quot;color: rgb(0, 0, 0);&quot;&gt;term Memory&lt;/span&gt;&lt;/div&gt;" style="rounded=1;whiteSpace=wrap;html=1;strokeWidth=2;fillColor=#F3E8FF;strokeColor=#8B5CF6;fontColor=#000000;rotation=-90;horizontal=1;textDirection=vertical-rl;" parent="1" vertex="1">
                    <mxGeometry x="666" y="133" width="86" height="55.5" as="geometry"/>
                </mxCell>
                <mxCell id="83" style="endArrow=classic;strokeWidth=2;strokeColor=#8B5CF6;fontColor=#000000;entryX=0.25;entryY=0;entryDx=0;entryDy=0;exitX=0;exitY=0.25;exitDx=0;exitDy=0;" parent="1" source="78" target="74" edge="1">
                    <mxGeometry relative="1" as="geometry">
                        <mxPoint x="617.25" y="208" as="sourcePoint"/>
                        <mxPoint x="617.25" y="250" as="targetPoint"/>
                    </mxGeometry>
                </mxCell>
                <mxCell id="84" style="endArrow=classic;strokeWidth=2;strokeColor=#8B5CF6;fontColor=#000000;entryX=0.75;entryY=0;entryDx=0;entryDy=0;exitX=0;exitY=0.75;exitDx=0;exitDy=0;" parent="1" source="82" target="74" edge="1">
                    <mxGeometry relative="1" as="geometry">
                        <mxPoint x="717" y="198.5" as="sourcePoint"/>
                        <mxPoint x="658" y="267.5" as="targetPoint"/>
                    </mxGeometry>
                </mxCell>
            </root>
        </mxGraphModel>
    </diagram>
</mxfile>